<svg width="1200" height="360" viewBox="0 0 1200 360" fill="none" xmlns="http://www.w3.org/2000/svg">
  <defs>
    <linearGradient id="accent" x1="80" y1="0" x2="1040" y2="360" gradientUnits="userSpaceOnUse">
      <stop stop-color="#58A6FF"/>
      <stop offset="0.55" stop-color="#A371F7"/>
      <stop offset="1" stop-color="#3FB950"/>
    </linearGradient>
    <radialGradient id="glowA" cx="0" cy="0" r="1" gradientUnits="userSpaceOnUse" gradientTransform="translate(995 75) rotate(145) scale(360 225)">
      <stop stop-color="#58A6FF" stop-opacity=".22"/>
      <stop offset="1" stop-color="#58A6FF" stop-opacity="0"/>
    </radialGradient>
    <radialGradient id="glowB" cx="0" cy="0" r="1" gradientUnits="userSpaceOnUse" gradientTransform="translate(1035 300) rotate(-145) scale(370 190)">
      <stop stop-color="#A371F7" stop-opacity=".18"/>
      <stop offset="1" stop-color="#A371F7" stop-opacity="0"/>
    </radialGradient>
    <pattern id="grid" width="32" height="32" patternUnits="userSpaceOnUse">
      <path d="M32 0H0V32" stroke="#8B949E" stroke-opacity=".07"/>
    </pattern>
    <filter id="soft" x="-40%" y="-40%" width="180%" height="180%">
      <feGaussianBlur stdDeviation="10"/>
    </filter>
  </defs>

  <rect width="1200" height="360" rx="24" fill="#0D1117"/>
  <rect width="1200" height="360" rx="24" fill="url(#grid)"/>
  <rect width="1200" height="360" rx="24" fill="url(#glowA)"/>
  <rect width="1200" height="360" rx="24" fill="url(#glowB)"/>

  <rect x="72" y="62" width="7" height="194" rx="3.5" fill="url(#accent)"/>

  <text x="108" y="118" fill="#F0F6FC" font-family="Inter, ui-sans-serif, system-ui, -apple-system, Segoe UI, sans-serif" font-size="54" font-weight="750" letter-spacing="-1.2">Serhii Dziupin</text>
  <text x="110" y="162" fill="#B8C0CC" font-family="Inter, ui-sans-serif, system-ui, -apple-system, Segoe UI, sans-serif" font-size="24" font-weight="600">Engineering Leader · Systems Builder</text>
  <text x="110" y="202" fill="#8B949E" font-family="Inter, ui-sans-serif, system-ui, -apple-system, Segoe UI, sans-serif" font-size="20">DevOps · Platform Engineering · Cloud Infrastructure · Automation</text>

  <g opacity=".92">
    <rect x="111" y="244" width="165" height="42" rx="21" fill="#161B22" stroke="#30363D"/>
    <text x="193.5" y="271" text-anchor="middle" fill="#C9D1D9" font-family="Inter, ui-sans-serif, system-ui, sans-serif" font-size="15" font-weight="600">Architecture</text>

    <path d="M286 265H328" stroke="#484F58" stroke-width="2"/>
    <path d="M321 259L328 265L321 271" stroke="#484F58" stroke-width="2" fill="none"/>

    <rect x="338" y="244" width="165" height="42" rx="21" fill="#161B22" stroke="#30363D"/>
    <text x="420.5" y="271" text-anchor="middle" fill="#C9D1D9" font-family="Inter, ui-sans-serif, system-ui, sans-serif" font-size="15" font-weight="600">Infrastructure</text>

    <path d="M513 265H555" stroke="#484F58" stroke-width="2"/>
    <path d="M548 259L555 265L548 271" stroke="#484F58" stroke-width="2" fill="none"/>

    <rect x="565" y="244" width="165" height="42" rx="21" fill="#161B22" stroke="#30363D"/>
    <text x="647.5" y="271" text-anchor="middle" fill="#C9D1D9" font-family="Inter, ui-sans-serif, system-ui, sans-serif" font-size="15" font-weight="600">Automation</text>

    <path d="M740 265H782" stroke="#484F58" stroke-width="2"/>
    <path d="M775 259L782 265L775 271" stroke="#484F58" stroke-width="2" fill="none"/>

    <rect x="792" y="244" width="198" height="42" rx="21" fill="#161B22" stroke="#30363D"/>
    <text x="891" y="271" text-anchor="middle" fill="#C9D1D9" font-family="Inter, ui-sans-serif, system-ui, sans-serif" font-size="15" font-weight="600">Developer Experience</text>
  </g>

  <g opacity=".85">
    <circle cx="1037" cy="96" r="44" fill="#58A6FF" fill-opacity=".10" stroke="#58A6FF" stroke-opacity=".42"/>
    <circle cx="1081" cy="142" r="30" fill="#A371F7" fill-opacity=".10" stroke="#A371F7" stroke-opacity=".40"/>
    <circle cx="1017" cy="168" r="23" fill="#3FB950" fill-opacity=".10" stroke="#3FB950" stroke-opacity=".38"/>
    <path d="M1006 128L1055 121L1067 154L1033 165L1006 128Z" stroke="url(#accent)" stroke-width="2" fill="none"/>
    <circle cx="1006" cy="128" r="5" fill="#58A6FF"/>
    <circle cx="1055" cy="121" r="5" fill="#A371F7"/>
    <circle cx="1067" cy="154" r="5" fill="#3FB950"/>
    <circle cx="1033" cy="165" r="5" fill="#58A6FF"/>
  </g>

  <rect x=".5" y=".5" width="1199" height="359" rx="23.5" stroke="#30363D"/>
</svg>